# xmcd CD database file
# Copyright (C) 1993-1996 Ti Kan
#
# Track frame offsets:
#	183
#	22793
#	33118
#	45938
#	58448
#	68820
#	86668
#	98370
#	117340
#	127603
#	145965
#	155423
#	173748
#	187175
#	203173
#	214588
#	225665
#	242175
#	257890
#	270945
#	283768
#	296073
#	316683
#
# Disc length: 4386 seconds
#
# Revision: 2
# Processed by: cddbd v1.4b41PL1 Copyright (c) Steve Scherf et al.
# Submitted via: CDValet v3.01 - Copyright (c) 1997 Greg Leichner
#
DISCID=3e112017
DTITLE=Various Artist - Road Music:  23 Truckin' Hits
DYEAR=1900
DGENRE=
TTITLE0=Teddy Bear
TTITLE1=Six Days on the Road
TTITLE2=Girl on the Billboard
TTITLE3=Passing Zone Blues
TTITLE4=Truck Driving Son of a Gun
TTITLE5=Convoy
TTITLE6=Give Me Forty Acres
TTITLE7=White Knight
TTITLE8=Looking at the World Through a Windsheild
TTITLE9=Giddyup Go Answer
TTITLE10=Truck Drivin' Queen
TTITLE11=Giddyup Go
TTITLE12=Endless Black Ribbon
TTITLE13=C.B. Savage
TTITLE14=Truck Drivin Man
TTITLE15=Overloaded Diesel
TTITLE16=Pinball Machine
TTITLE17=Phantom 309
TTITLE18=Truck Drivers Prayer
TTITLE19=How Fast Them Trucks Can Go
TTITLE20=Widowmaker
TTITLE21=Little Joe
TTITLE22=Freightliner Fever
EXTD=
EXTT0=
EXTT1=
EXTT2=
EXTT3=
EXTT4=
EXTT5=
EXTT6=
EXTT7=
EXTT8=
EXTT9=
EXTT10=
EXTT11=
EXTT12=
EXTT13=
EXTT14=
EXTT15=
EXTT16=
EXTT17=
EXTT18=
EXTT19=
EXTT20=
EXTT21=
EXTT22=
PLAYORDER=
